# xmcd
#
# Track frame offsets:
#	150
#	12162
#	25340
#	39615
#	57967
#	79580
#	97912
#	112430
#	125762
#	142560
#
# Disc length: 2121 seconds
#
# Revision: 0
# Processed by: cddbd v1.5.2PL0 Copyright (c) Steve Scherf et al.
# Submitted via: EasyCDDAExtractor 12.0.0.1
#
DISCID=7d08470a
DTITLE=Amanda Miguel - Rompecorazones
DYEAR=1992
DGENRE=Latin
TTITLE0=Rompecorazones
TTITLE1=La Escalera
TTITLE2=El Viernes Se Acaba Todo
TTITLE3=Era El Amor
TTITLE4=En La Feria De Jalisco
TTITLE5=La Misma Gran Señora
TTITLE6=Atras De Mi Ventana
TTITLE7=Mirame Como Estoy
TTITLE8=Agua Clara
TTITLE9=A Nuestra Querida Lola
EXTD=
EXTT0=
EXTT1=
EXTT2=
EXTT3=
EXTT4=
EXTT5=
EXTT6=
EXTT7=
EXTT8=
EXTT9=
PLAYORDER=
